<?xml version="1.0" encoding="utf-8"?>
<!-- Generator: Adobe Illustrator 27.4.1, SVG Export Plug-In . SVG Version: 6.00 Build 0)  -->
<svg version="1.1" id="Ebene_1" xmlns:v="https://vecta.io/nano"
	 xmlns="http://www.w3.org/2000/svg" xmlns:xlink="http://www.w3.org/1999/xlink" x="0px" y="0px" viewBox="0 0 310.7 315"
	 style="enable-background:new 0 0 310.7 315;" xml:space="preserve">
<style type="text/css">
	.st0{fill:#F9F9F9;}
</style>
<path class="st0" d="M142.8,37.6c-26.2,0-49.5,16.9-57.6,41.8c-16.9,3.5-31.4,14-39.9,29c-13.2,22.7-10.1,51.3,7.5,70.8
	c-5.4,16.3-3.6,34.2,5.1,48.9c13.1,22.8,39.4,34.5,65.1,29.1c11.4,12.9,27.8,20.2,45,20.1c26.2,0,49.5-16.9,57.6-41.8
	c16.9-3.5,31.4-14,39.9-29c13.2-22.7,10.2-51.3-7.4-70.8v-0.1c5.4-16.3,3.6-34.2-5.1-49c-13.1-22.7-39.4-34.4-65-29
	C176.4,44.9,160,37.6,142.8,37.6z M142.8,53.2L142.8,53.2c10.5,0.1,20.6,3.7,28.7,10.5c-0.3,0.2-1,0.6-1.5,0.8L122.4,92
	c-2.4,1.4-3.9,4-3.9,6.8v64.6L98,151.6V98.2C97.9,73.4,118,53.3,142.8,53.2L142.8,53.2z M200.3,72c16.1,0,31,8.6,39,22.5
	c5.2,9.1,7.1,19.7,5.4,30c-0.3-0.2-1-0.6-1.4-0.8l-47.7-27.6c-2.4-1.4-5.4-1.4-7.9,0l-55.9,32.3v-23.7L178,78.1
	C184.8,74.1,192.5,72,200.3,72L200.3,72z M82.3,96.6v56.7c0,2.8,1.5,5.4,3.9,6.8l55.8,32.2l-20.6,11.9l-46.1-26.6
	c-21.5-12.4-28.8-39.9-16.4-61.4C64.2,107.2,72.4,100.2,82.3,96.6L82.3,96.6z M189.3,110.6l46.2,26.6c21.5,12.4,28.8,39.9,16.4,61.4
	l0.1,0.1c-5.3,9.1-13.6,16.1-23.4,19.6v-56.7c0-2.8-1.5-5.4-3.9-6.8l-55.9-32.3L189.3,110.6z M155.3,130.2l23.5,13.6V171l-23.5,13.6
	L131.8,171v-27.2L155.3,130.2z M192.4,151.6l20.5,11.9v53.3c0,24.8-20.1,45-44.9,45v-0.1c-10.5,0-20.7-3.7-28.7-10.4
	c0.3-0.2,1.1-0.6,1.5-0.8l47.7-27.5c2.4-1.4,4-4,3.9-6.8L192.4,151.6z M179,186.5v23.7l-46.2,26.6c-21.5,12.3-48.9,5-61.4-16.4h0.1
	c-5.3-9-7.1-19.7-5.4-30c0.3,0.2,1,0.6,1.4,0.8l47.7,27.6c2.4,1.4,5.4,1.4,7.9,0L179,186.5z"/>
</svg>
